<mxfile host="app.diagrams.net" agent="Mozilla/5.0 (Macintosh; Intel Mac OS X 10_15_7) AppleWebKit/537.36 (KHTML, like Gecko) Chrome/138.0.0.0 Safari/537.36" version="28.0.4">
  <diagram id="C5RBs43oDa-KdzZeNtuy" name="Page-1">
    <mxGraphModel dx="705" dy="403" grid="1" gridSize="10" guides="1" tooltips="1" connect="1" arrows="1" fold="1" page="1" pageScale="1" pageWidth="827" pageHeight="1169" math="0" shadow="0">
      <root>
        <mxCell id="WIyWlLk6GJQsqaUBKTNV-0" />
        <mxCell id="WIyWlLk6GJQsqaUBKTNV-1" parent="WIyWlLk6GJQsqaUBKTNV-0" />
        <mxCell id="WIyWlLk6GJQsqaUBKTNV-2" value="" style="rounded=0;html=1;jettySize=auto;orthogonalLoop=1;fontSize=11;endArrow=block;endFill=0;endSize=8;strokeWidth=1;shadow=0;labelBackgroundColor=none;edgeStyle=orthogonalEdgeStyle;" parent="WIyWlLk6GJQsqaUBKTNV-1" source="WIyWlLk6GJQsqaUBKTNV-3" target="WIyWlLk6GJQsqaUBKTNV-6" edge="1">
          <mxGeometry relative="1" as="geometry" />
        </mxCell>
        <mxCell id="WIyWlLk6GJQsqaUBKTNV-3" value="Lamp doesn&#39;t work" style="rounded=1;whiteSpace=wrap;html=1;fontSize=12;glass=0;strokeWidth=1;shadow=0;" parent="WIyWlLk6GJQsqaUBKTNV-1" vertex="1">
          <mxGeometry y="80" width="120" height="40" as="geometry" />
        </mxCell>
        <mxCell id="WIyWlLk6GJQsqaUBKTNV-4" value="Yes" style="rounded=0;html=1;jettySize=auto;orthogonalLoop=1;fontSize=11;endArrow=block;endFill=0;endSize=8;strokeWidth=1;shadow=0;labelBackgroundColor=none;edgeStyle=orthogonalEdgeStyle;" parent="WIyWlLk6GJQsqaUBKTNV-1" source="WIyWlLk6GJQsqaUBKTNV-6" target="WIyWlLk6GJQsqaUBKTNV-10" edge="1">
          <mxGeometry y="20" relative="1" as="geometry">
            <mxPoint as="offset" />
          </mxGeometry>
        </mxCell>
        <mxCell id="WIyWlLk6GJQsqaUBKTNV-5" value="No" style="edgeStyle=orthogonalEdgeStyle;rounded=0;html=1;jettySize=auto;orthogonalLoop=1;fontSize=11;endArrow=block;endFill=0;endSize=8;strokeWidth=1;shadow=0;labelBackgroundColor=none;" parent="WIyWlLk6GJQsqaUBKTNV-1" source="WIyWlLk6GJQsqaUBKTNV-6" target="WIyWlLk6GJQsqaUBKTNV-7" edge="1">
          <mxGeometry y="10" relative="1" as="geometry">
            <mxPoint as="offset" />
          </mxGeometry>
        </mxCell>
        <mxCell id="WIyWlLk6GJQsqaUBKTNV-6" value="Lamp&lt;br&gt;plugged in?" style="rhombus;whiteSpace=wrap;html=1;shadow=0;fontFamily=Helvetica;fontSize=12;align=center;strokeWidth=1;spacing=6;spacingTop=-4;" parent="WIyWlLk6GJQsqaUBKTNV-1" vertex="1">
          <mxGeometry x="10" y="170" width="100" height="80" as="geometry" />
        </mxCell>
        <mxCell id="WIyWlLk6GJQsqaUBKTNV-7" value="Plug in lamp" style="rounded=1;whiteSpace=wrap;html=1;fontSize=12;glass=0;strokeWidth=1;shadow=0;" parent="WIyWlLk6GJQsqaUBKTNV-1" vertex="1">
          <mxGeometry x="160" y="190" width="120" height="40" as="geometry" />
        </mxCell>
        <mxCell id="WIyWlLk6GJQsqaUBKTNV-8" value="No" style="rounded=0;html=1;jettySize=auto;orthogonalLoop=1;fontSize=11;endArrow=block;endFill=0;endSize=8;strokeWidth=1;shadow=0;labelBackgroundColor=none;edgeStyle=orthogonalEdgeStyle;" parent="WIyWlLk6GJQsqaUBKTNV-1" source="WIyWlLk6GJQsqaUBKTNV-10" target="WIyWlLk6GJQsqaUBKTNV-11" edge="1">
          <mxGeometry x="0.3333" y="20" relative="1" as="geometry">
            <mxPoint as="offset" />
          </mxGeometry>
        </mxCell>
        <mxCell id="WIyWlLk6GJQsqaUBKTNV-9" value="Yes" style="edgeStyle=orthogonalEdgeStyle;rounded=0;html=1;jettySize=auto;orthogonalLoop=1;fontSize=11;endArrow=block;endFill=0;endSize=8;strokeWidth=1;shadow=0;labelBackgroundColor=none;" parent="WIyWlLk6GJQsqaUBKTNV-1" source="WIyWlLk6GJQsqaUBKTNV-10" target="WIyWlLk6GJQsqaUBKTNV-12" edge="1">
          <mxGeometry y="10" relative="1" as="geometry">
            <mxPoint as="offset" />
          </mxGeometry>
        </mxCell>
        <mxCell id="WIyWlLk6GJQsqaUBKTNV-10" value="Bulb&lt;br&gt;burned out?" style="rhombus;whiteSpace=wrap;html=1;shadow=0;fontFamily=Helvetica;fontSize=12;align=center;strokeWidth=1;spacing=6;spacingTop=-4;" parent="WIyWlLk6GJQsqaUBKTNV-1" vertex="1">
          <mxGeometry x="10" y="290" width="100" height="80" as="geometry" />
        </mxCell>
        <mxCell id="WIyWlLk6GJQsqaUBKTNV-11" value="Repair Lamp" style="rounded=1;whiteSpace=wrap;html=1;fontSize=12;glass=0;strokeWidth=1;shadow=0;" parent="WIyWlLk6GJQsqaUBKTNV-1" vertex="1">
          <mxGeometry y="430" width="120" height="40" as="geometry" />
        </mxCell>
        <mxCell id="WIyWlLk6GJQsqaUBKTNV-12" value="Replace Bulb" style="rounded=1;whiteSpace=wrap;html=1;fontSize=12;glass=0;strokeWidth=1;shadow=0;" parent="WIyWlLk6GJQsqaUBKTNV-1" vertex="1">
          <mxGeometry x="160" y="310" width="120" height="40" as="geometry" />
        </mxCell>
        <mxCell id="BL6Vwje-RZ1VT4TPuW7h-0" value="XVI Translate Flow" style="swimlane;childLayout=stackLayout;resizeParent=1;resizeParentMax=0;startSize=20;html=1;" vertex="1" parent="WIyWlLk6GJQsqaUBKTNV-1">
          <mxGeometry x="340.00000000000045" y="60" width="580" height="480" as="geometry" />
        </mxCell>
        <mxCell id="BL6Vwje-RZ1VT4TPuW7h-1" value="Translate Pipe / Service" style="swimlane;startSize=20;html=1;" vertex="1" parent="BL6Vwje-RZ1VT4TPuW7h-0">
          <mxGeometry y="20" width="170" height="460" as="geometry" />
        </mxCell>
        <mxCell id="BL6Vwje-RZ1VT4TPuW7h-12" style="edgeStyle=orthogonalEdgeStyle;rounded=0;orthogonalLoop=1;jettySize=auto;html=1;exitX=0.5;exitY=1;exitDx=0;exitDy=0;entryX=0.5;entryY=0;entryDx=0;entryDy=0;" edge="1" parent="BL6Vwje-RZ1VT4TPuW7h-1" source="BL6Vwje-RZ1VT4TPuW7h-5" target="BL6Vwje-RZ1VT4TPuW7h-11">
          <mxGeometry relative="1" as="geometry" />
        </mxCell>
        <mxCell id="BL6Vwje-RZ1VT4TPuW7h-5" value="translate" style="rounded=1;whiteSpace=wrap;html=1;fontSize=12;glass=0;strokeWidth=1;shadow=0;" vertex="1" parent="BL6Vwje-RZ1VT4TPuW7h-1">
          <mxGeometry x="9" y="100" width="65" height="40" as="geometry" />
        </mxCell>
        <mxCell id="BL6Vwje-RZ1VT4TPuW7h-13" style="edgeStyle=orthogonalEdgeStyle;rounded=0;orthogonalLoop=1;jettySize=auto;html=1;exitX=0.5;exitY=1;exitDx=0;exitDy=0;entryX=0.5;entryY=0;entryDx=0;entryDy=0;" edge="1" parent="BL6Vwje-RZ1VT4TPuW7h-1" source="BL6Vwje-RZ1VT4TPuW7h-6" target="BL6Vwje-RZ1VT4TPuW7h-11">
          <mxGeometry relative="1" as="geometry">
            <mxPoint x="159.99999999999955" y="180" as="targetPoint" />
          </mxGeometry>
        </mxCell>
        <mxCell id="BL6Vwje-RZ1VT4TPuW7h-6" value="instant" style="rounded=1;whiteSpace=wrap;html=1;fontSize=12;glass=0;strokeWidth=1;shadow=0;" vertex="1" parent="BL6Vwje-RZ1VT4TPuW7h-1">
          <mxGeometry x="89.99999999999955" y="100" width="65" height="40" as="geometry" />
        </mxCell>
        <mxCell id="BL6Vwje-RZ1VT4TPuW7h-15" style="edgeStyle=orthogonalEdgeStyle;rounded=0;orthogonalLoop=1;jettySize=auto;html=1;exitX=0.5;exitY=1;exitDx=0;exitDy=0;" edge="1" parent="BL6Vwje-RZ1VT4TPuW7h-1" source="BL6Vwje-RZ1VT4TPuW7h-11" target="BL6Vwje-RZ1VT4TPuW7h-14">
          <mxGeometry relative="1" as="geometry" />
        </mxCell>
        <mxCell id="BL6Vwje-RZ1VT4TPuW7h-11" value="Get Translation" style="rounded=1;whiteSpace=wrap;html=1;fontSize=12;glass=0;strokeWidth=1;shadow=0;" vertex="1" parent="BL6Vwje-RZ1VT4TPuW7h-1">
          <mxGeometry x="24.999999999999545" y="200" width="120" height="40" as="geometry" />
        </mxCell>
        <mxCell id="BL6Vwje-RZ1VT4TPuW7h-14" value="Translation undefined?" style="rhombus;whiteSpace=wrap;html=1;shadow=0;fontFamily=Helvetica;fontSize=12;align=center;strokeWidth=1;spacing=6;spacingTop=-4;" vertex="1" parent="BL6Vwje-RZ1VT4TPuW7h-1">
          <mxGeometry x="34.999999999999545" y="270" width="100" height="80" as="geometry" />
        </mxCell>
        <mxCell id="BL6Vwje-RZ1VT4TPuW7h-10" value="Default Missing Translation Handler" style="swimlane;startSize=20;html=1;" vertex="1" parent="BL6Vwje-RZ1VT4TPuW7h-0">
          <mxGeometry x="170" y="20" width="230" height="460" as="geometry" />
        </mxCell>
        <mxCell id="BL6Vwje-RZ1VT4TPuW7h-16" value="handle method&lt;div&gt;get local default en-US translation&lt;/div&gt;" style="rounded=1;whiteSpace=wrap;html=1;fontSize=12;glass=0;strokeWidth=1;shadow=0;" vertex="1" parent="BL6Vwje-RZ1VT4TPuW7h-10">
          <mxGeometry x="20" y="85" width="190" height="70" as="geometry" />
        </mxCell>
        <mxCell id="BL6Vwje-RZ1VT4TPuW7h-9" value="Default Translation Parser" style="swimlane;startSize=20;html=1;" vertex="1" parent="BL6Vwje-RZ1VT4TPuW7h-0">
          <mxGeometry x="400" y="20" width="180" height="460" as="geometry" />
        </mxCell>
        <mxCell id="BL6Vwje-RZ1VT4TPuW7h-22" value="interpolate" style="rounded=1;whiteSpace=wrap;html=1;fontSize=12;glass=0;strokeWidth=1;shadow=0;" vertex="1" parent="BL6Vwje-RZ1VT4TPuW7h-9">
          <mxGeometry x="29.999999999999545" y="350" width="120" height="40" as="geometry" />
        </mxCell>
        <mxCell id="BL6Vwje-RZ1VT4TPuW7h-17" style="edgeStyle=orthogonalEdgeStyle;rounded=0;orthogonalLoop=1;jettySize=auto;html=1;exitX=1;exitY=0.5;exitDx=0;exitDy=0;entryX=0;entryY=0.5;entryDx=0;entryDy=0;" edge="1" parent="BL6Vwje-RZ1VT4TPuW7h-0" source="BL6Vwje-RZ1VT4TPuW7h-14" target="BL6Vwje-RZ1VT4TPuW7h-16">
          <mxGeometry relative="1" as="geometry" />
        </mxCell>
        <mxCell id="BL6Vwje-RZ1VT4TPuW7h-18" value="Yes" style="edgeLabel;html=1;align=center;verticalAlign=middle;resizable=0;points=[];" vertex="1" connectable="0" parent="BL6Vwje-RZ1VT4TPuW7h-17">
          <mxGeometry x="-0.3528" y="-1" relative="1" as="geometry">
            <mxPoint as="offset" />
          </mxGeometry>
        </mxCell>
        <mxCell id="BL6Vwje-RZ1VT4TPuW7h-20" style="edgeStyle=orthogonalEdgeStyle;rounded=0;orthogonalLoop=1;jettySize=auto;html=1;exitX=0.5;exitY=1;exitDx=0;exitDy=0;entryX=0;entryY=0.5;entryDx=0;entryDy=0;" edge="1" parent="BL6Vwje-RZ1VT4TPuW7h-0" source="BL6Vwje-RZ1VT4TPuW7h-14" target="BL6Vwje-RZ1VT4TPuW7h-22">
          <mxGeometry relative="1" as="geometry">
            <mxPoint x="429.99999999999955" y="390" as="targetPoint" />
            <Array as="points">
              <mxPoint x="85" y="390" />
            </Array>
          </mxGeometry>
        </mxCell>
        <mxCell id="BL6Vwje-RZ1VT4TPuW7h-23" value="No" style="edgeLabel;html=1;align=center;verticalAlign=middle;resizable=0;points=[];" vertex="1" connectable="0" parent="BL6Vwje-RZ1VT4TPuW7h-20">
          <mxGeometry x="-0.5412" y="2" relative="1" as="geometry">
            <mxPoint as="offset" />
          </mxGeometry>
        </mxCell>
        <mxCell id="BL6Vwje-RZ1VT4TPuW7h-24" style="edgeStyle=orthogonalEdgeStyle;rounded=0;orthogonalLoop=1;jettySize=auto;html=1;exitX=1;exitY=0.5;exitDx=0;exitDy=0;entryX=0.5;entryY=0;entryDx=0;entryDy=0;" edge="1" parent="BL6Vwje-RZ1VT4TPuW7h-0" source="BL6Vwje-RZ1VT4TPuW7h-16" target="BL6Vwje-RZ1VT4TPuW7h-22">
          <mxGeometry relative="1" as="geometry" />
        </mxCell>
        <mxCell id="BL6Vwje-RZ1VT4TPuW7h-7" style="edgeStyle=orthogonalEdgeStyle;rounded=0;orthogonalLoop=1;jettySize=auto;html=1;exitX=1;exitY=0.5;exitDx=0;exitDy=0;entryX=0.5;entryY=0;entryDx=0;entryDy=0;" edge="1" parent="WIyWlLk6GJQsqaUBKTNV-1" source="BL6Vwje-RZ1VT4TPuW7h-4" target="BL6Vwje-RZ1VT4TPuW7h-5">
          <mxGeometry relative="1" as="geometry" />
        </mxCell>
        <mxCell id="BL6Vwje-RZ1VT4TPuW7h-8" style="edgeStyle=orthogonalEdgeStyle;rounded=0;orthogonalLoop=1;jettySize=auto;html=1;entryX=0.5;entryY=0;entryDx=0;entryDy=0;" edge="1" parent="WIyWlLk6GJQsqaUBKTNV-1" source="BL6Vwje-RZ1VT4TPuW7h-4" target="BL6Vwje-RZ1VT4TPuW7h-6">
          <mxGeometry relative="1" as="geometry" />
        </mxCell>
        <mxCell id="BL6Vwje-RZ1VT4TPuW7h-4" value="Start" style="rounded=1;whiteSpace=wrap;html=1;fontSize=12;glass=0;strokeWidth=1;shadow=0;" vertex="1" parent="WIyWlLk6GJQsqaUBKTNV-1">
          <mxGeometry x="200" y="120" width="120" height="40" as="geometry" />
        </mxCell>
      </root>
    </mxGraphModel>
  </diagram>
</mxfile>
